<svg width="81" height="32" viewBox="0 0 81 32" fill="none" xmlns="http://www.w3.org/2000/svg">
<path d="M29.664 30.136C30.24 29.496 30.528 28.776 30.528 27.976C30.528 27.144 30.24 26.44 29.664 25.864L28.8 25L22.752 18.952H27.552C28.384 18.952 29.088 18.664 29.664 18.088C30.24 17.48 30.528 16.776 30.528 15.976C30.528 15.176 30.24 14.456 29.664 13.816C29.024 13.24 28.32 12.952 27.552 12.952H22.752L26.112 9.592C26.72 9.016 27.024 8.312 27.024 7.48C27.024 6.648 26.72 5.928 26.112 5.32C25.536 4.744 24.832 4.456 24 4.456C23.168 4.456 22.464 4.744 21.888 5.32L18.528 8.728V3.928C18.528 3.064 18.224 2.36 17.616 1.816C17.04 1.176 16.304 0.887999 15.408 0.951998C14.608 0.951998 13.92 1.256 13.344 1.864C12.768 2.44 12.48 3.144 12.48 3.976V8.728L9.12 5.32C8.544 4.744 7.84 4.456 7.008 4.456C6.176 4.456 5.472 4.744 4.896 5.32C4.288 5.928 3.984 6.632 3.984 7.432C3.984 8.2 4.288 8.92 4.896 9.592L8.256 12.952H3.456C2.624 12.952 1.92 13.24 1.344 13.816C0.768 14.456 0.48 15.176 0.48 15.976C0.48 16.776 0.768 17.48 1.344 18.088C1.952 18.664 2.656 18.952 3.456 18.952H8.256L2.208 25L1.344 25.864C0.768 26.44 0.48 27.144 0.48 27.976C0.48 28.84 0.768 29.56 1.344 30.136C1.92 30.712 2.624 31 3.456 31C4.32 31 5.04 30.712 5.616 30.136L6.48 29.224L15.504 20.2L24.528 29.224L25.392 30.136C25.968 30.712 26.688 31 27.552 31C28.384 31 29.088 30.712 29.664 30.136ZM61.6073 16.072C61.6073 15.144 61.3033 14.408 60.6953 13.864C60.1513 13.256 59.4473 12.952 58.5833 12.952H53.8313L57.1913 9.592C57.7993 8.984 58.1033 8.264 58.1033 7.432C58.1033 6.6 57.7993 5.896 57.1913 5.32C56.6153 4.744 55.9113 4.456 55.0793 4.456C54.2793 4.456 53.5593 4.744 52.9193 5.32L49.5593 8.728V3.928C49.5593 3.096 49.2713 2.392 48.6953 1.816C48.1193 1.24 47.4153 0.951998 46.5833 0.951998C45.7513 0.951998 45.0313 1.24 44.4233 1.816C43.8473 2.392 43.5593 3.096 43.5593 3.928V8.728L40.1993 5.32C39.5913 4.744 38.8713 4.456 38.0393 4.456C37.2073 4.456 36.5033 4.744 35.9273 5.32C35.3513 5.896 35.0633 6.6 35.0633 7.432C35.0633 8.232 35.3513 8.952 35.9273 9.592L39.2873 12.952H34.5353C33.6713 12.952 32.9673 13.256 32.4233 13.864C31.8153 14.408 31.5113 15.144 31.5113 16.072C31.5433 16.872 31.8473 17.56 32.4233 18.136C33.0313 18.68 33.7513 18.952 34.5833 18.952H35.0633V27.976C35.0633 28.776 35.3513 29.496 35.9273 30.136C36.5033 30.712 37.2073 31 38.0393 31C38.8713 31 39.5753 30.712 40.1513 30.136C40.7593 29.528 41.0633 28.808 41.0633 27.976V18.952H52.0553V27.976C52.0553 28.776 52.3433 29.496 52.9193 30.136C53.5593 30.712 54.2793 31 55.0793 31C55.9113 31 56.6153 30.712 57.1913 30.136C57.7673 29.528 58.0553 28.808 58.0553 27.976V18.952H58.5353C59.3673 18.952 60.0713 18.68 60.6473 18.136C61.2553 17.56 61.5753 16.872 61.6073 16.072ZM68.5894 28.024C68.5894 28.792 68.8774 29.496 69.4534 30.136C70.0614 30.744 70.7974 31.032 71.6614 31C72.4934 30.968 73.1814 30.664 73.7254 30.088C74.3014 29.48 74.5894 28.76 74.5894 27.928V22.36C74.5894 21.528 74.3014 20.824 73.7254 20.248C73.1494 19.64 72.4454 19.336 71.6134 19.336C70.7814 19.336 70.0614 19.64 69.4534 20.248C68.8774 20.824 68.5894 21.528 68.5894 22.36V28.024ZM80.6374 10.024C80.6374 9.16 80.3334 8.424 79.7254 7.816C79.4054 7.496 79.0054 7.256 78.5254 7.096C78.7494 6.584 78.8614 6.12 78.8614 5.704C78.8614 4.936 78.5894 4.248 78.0454 3.64C77.4054 3 76.6694 2.68 75.8374 2.68C75.4214 2.68 74.9574 2.792 74.4454 3.016C74.2854 2.536 74.0454 2.136 73.7254 1.816C73.1174 1.208 72.3814 0.919998 71.5174 0.951998C70.8774 0.951998 70.3014 1.16 69.7894 1.576C69.2774 1.96 68.9254 2.456 68.7334 3.064C68.2854 2.808 67.8214 2.68 67.3414 2.68C66.5414 2.68 65.8374 2.984 65.2294 3.592C64.6214 4.168 64.3174 4.872 64.3174 5.704C64.3174 6.12 64.4294 6.584 64.6534 7.096C64.0454 7.288 63.5494 7.656 63.1654 8.2C62.7814 8.712 62.5894 9.304 62.5894 9.976C62.5894 10.808 62.8774 11.512 63.4534 12.088C63.7734 12.408 64.1894 12.648 64.7014 12.808C64.4454 13.256 64.3174 13.736 64.3174 14.248C64.3174 15.048 64.6214 15.752 65.2294 16.36C65.8054 16.936 66.5094 17.224 67.3414 17.224C67.8534 17.224 68.3174 17.112 68.7334 16.888C68.8614 17.336 69.1014 17.736 69.4534 18.088C70.0614 18.696 70.7814 19 71.6134 19C72.2854 19 72.8774 18.808 73.3894 18.424C73.9014 18.008 74.2534 17.496 74.4454 16.888C74.8614 17.112 75.3414 17.224 75.8854 17.224C76.6854 17.224 77.3574 16.952 77.9014 16.408C78.5414 15.768 78.8614 15.032 78.8614 14.2C78.8614 13.784 78.7494 13.32 78.5254 12.808C79.1334 12.616 79.6294 12.264 80.0134 11.752C80.3974 11.24 80.6054 10.664 80.6374 10.024Z" fill="black"/>
</svg>
