<svg width="108" height="119" viewBox="0 0 108 119" fill="none" xmlns="http://www.w3.org/2000/svg">
<g filter="url(#filter0_di_13_7)">
<circle cx="54" cy="60.4478" r="50" fill="#EFC0AE"/>
</g>
<path d="M62.592 62.88C60.992 62.048 59.808 61.44 59.04 61.056C58.272 60.672 57.632 60.352 57.12 60.096C56.672 59.84 56.224 59.616 55.776 59.424C55.392 59.232 54.752 58.912 53.856 58.464C53.024 58.016 51.776 57.408 50.112 56.64C48.448 55.808 46.176 54.688 43.296 53.28C42.656 52.896 42.336 52.256 42.336 51.36C42.336 50.784 42.4 49.92 42.528 48.768C42.656 47.616 42.88 46.464 43.2 45.312C43.584 44.096 44.064 43.072 44.64 42.24C45.216 41.344 45.984 40.896 46.944 40.896C47.776 40.896 48.96 41.216 50.496 41.856C52.032 42.496 53.728 43.36 55.584 44.448C57.504 45.472 59.456 46.624 61.44 47.904C63.424 49.12 65.28 50.336 67.008 51.552C68.8 52.768 70.336 53.888 71.616 54.912C72.96 55.936 73.856 56.704 74.304 57.216C74.688 57.728 74.912 58.176 74.976 58.56C75.04 58.88 75.072 59.232 75.072 59.616L74.688 65.472C74.624 66.368 74.432 67.04 74.112 67.488C73.856 67.936 73.408 68.416 72.768 68.928C72.064 69.44 70.88 70.208 69.216 71.232C67.552 72.192 65.664 73.28 63.552 74.496C61.44 75.648 59.2 76.864 56.832 78.144C54.464 79.36 52.192 80.48 50.016 81.504C47.904 82.464 46.016 83.264 44.352 83.904C42.688 84.544 41.504 84.864 40.8 84.864C40.032 84.864 39.648 84.448 39.648 83.616C39.648 81.248 39.744 79.328 39.936 77.856C40.128 76.384 40.448 75.2 40.896 74.304C41.344 73.344 41.888 72.608 42.528 72.096C43.168 71.52 43.936 70.976 44.832 70.464C45.792 69.952 46.784 69.44 47.808 68.928C48.896 68.416 50.112 67.872 51.456 67.296C52.864 66.72 54.464 66.08 56.256 65.376C58.048 64.672 60.16 63.84 62.592 62.88Z" fill="white"/>
<defs>
<filter id="filter0_di_13_7" x="0" y="10.4478" width="108" height="108" filterUnits="userSpaceOnUse" color-interpolation-filters="sRGB">
<feFlood flood-opacity="0" result="BackgroundImageFix"/>
<feColorMatrix in="SourceAlpha" type="matrix" values="0 0 0 0 0 0 0 0 0 0 0 0 0 0 0 0 0 0 127 0" result="hardAlpha"/>
<feOffset dy="4"/>
<feGaussianBlur stdDeviation="2"/>
<feComposite in2="hardAlpha" operator="out"/>
<feColorMatrix type="matrix" values="0 0 0 0 0 0 0 0 0 0 0 0 0 0 0 0 0 0 0.25 0"/>
<feBlend mode="normal" in2="BackgroundImageFix" result="effect1_dropShadow_13_7"/>
<feBlend mode="normal" in="SourceGraphic" in2="effect1_dropShadow_13_7" result="shape"/>
<feColorMatrix in="SourceAlpha" type="matrix" values="0 0 0 0 0 0 0 0 0 0 0 0 0 0 0 0 0 0 127 0" result="hardAlpha"/>
<feOffset dy="4"/>
<feGaussianBlur stdDeviation="2"/>
<feComposite in2="hardAlpha" operator="arithmetic" k2="-1" k3="1"/>
<feColorMatrix type="matrix" values="0 0 0 0 0 0 0 0 0 0 0 0 0 0 0 0 0 0 0.25 0"/>
<feBlend mode="normal" in2="shape" result="effect2_innerShadow_13_7"/>
</filter>
</defs>
</svg>
