<svg width="663" height="620" viewBox="0 0 663 620" fill="none" xmlns="http://www.w3.org/2000/svg">
<path d="M158.208 195.392C161.28 191.979 162.816 188.139 162.816 183.872C162.816 179.435 161.28 175.68 158.208 172.608L153.6 168L121.344 135.744H146.944C151.381 135.744 155.136 134.208 158.208 131.136C161.28 127.893 162.816 124.139 162.816 119.872C162.816 115.605 161.28 111.765 158.208 108.352C154.795 105.28 151.04 103.744 146.944 103.744H121.344L139.264 85.824C142.507 82.752 144.128 78.9973 144.128 74.56C144.128 70.1227 142.507 66.2827 139.264 63.04C136.192 59.968 132.437 58.432 128 58.432C123.563 58.432 119.808 59.968 116.736 63.04L98.816 81.216V55.616C98.816 51.008 97.1947 47.2533 93.952 44.352C90.88 40.9387 86.9547 39.4027 82.176 39.744C77.9093 39.744 74.24 41.3653 71.168 44.608C68.096 47.68 66.56 51.4347 66.56 55.872V81.216L48.64 63.04C45.568 59.968 41.8133 58.432 37.376 58.432C32.9387 58.432 29.184 59.968 26.112 63.04C22.8693 66.2827 21.248 70.0373 21.248 74.304C21.248 78.4 22.8693 82.24 26.112 85.824L44.032 103.744H18.432C13.9947 103.744 10.24 105.28 7.168 108.352C4.096 111.765 2.56 115.605 2.56 119.872C2.56 124.139 4.096 127.893 7.168 131.136C10.4107 134.208 14.1653 135.744 18.432 135.744H44.032L11.776 168L7.168 172.608C4.096 175.68 2.56 179.435 2.56 183.872C2.56 188.48 4.096 192.32 7.168 195.392C10.24 198.464 13.9947 200 18.432 200C23.04 200 26.88 198.464 29.952 195.392L34.56 190.528L82.688 142.4L130.816 190.528L135.424 195.392C138.496 198.464 142.336 200 146.944 200C151.381 200 155.136 198.464 158.208 195.392ZM328.572 120.384C328.572 115.435 326.951 111.509 323.708 108.608C320.807 105.365 317.052 103.744 312.444 103.744H287.1L305.02 85.824C308.263 82.5813 309.884 78.7413 309.884 74.304C309.884 69.8667 308.263 66.112 305.02 63.04C301.948 59.968 298.193 58.432 293.756 58.432C289.489 58.432 285.649 59.968 282.236 63.04L264.316 81.216V55.616C264.316 51.1787 262.78 47.424 259.708 44.352C256.636 41.28 252.881 39.744 248.444 39.744C244.007 39.744 240.167 41.28 236.924 44.352C233.852 47.424 232.316 51.1787 232.316 55.616V81.216L214.396 63.04C211.153 59.968 207.313 58.432 202.876 58.432C198.439 58.432 194.684 59.968 191.612 63.04C188.54 66.112 187.004 69.8667 187.004 74.304C187.004 78.5707 188.54 82.4107 191.612 85.824L209.532 103.744H184.188C179.58 103.744 175.825 105.365 172.924 108.608C169.681 111.509 168.06 115.435 168.06 120.384C168.231 124.651 169.852 128.32 172.924 131.392C176.167 134.293 180.007 135.744 184.444 135.744H187.004V183.872C187.004 188.139 188.54 191.979 191.612 195.392C194.684 198.464 198.439 200 202.876 200C207.313 200 211.068 198.464 214.14 195.392C217.383 192.149 219.004 188.309 219.004 183.872V135.744H277.628V183.872C277.628 188.139 279.164 191.979 282.236 195.392C285.649 198.464 289.489 200 293.756 200C298.193 200 301.948 198.464 305.02 195.392C308.092 192.149 309.628 188.309 309.628 183.872V135.744H312.188C316.625 135.744 320.38 134.293 323.452 131.392C326.695 128.32 328.401 124.651 328.572 120.384ZM365.81 184.128C365.81 188.224 367.346 191.979 370.418 195.392C373.661 198.635 377.586 200.171 382.194 200C386.631 199.829 390.301 198.208 393.202 195.136C396.274 191.893 397.81 188.053 397.81 183.616V153.92C397.81 149.483 396.274 145.728 393.202 142.656C390.13 139.413 386.375 137.792 381.938 137.792C377.501 137.792 373.661 139.413 370.418 142.656C367.346 145.728 365.81 149.483 365.81 153.92V184.128ZM430.066 88.128C430.066 83.52 428.445 79.5947 425.202 76.352C423.495 74.6453 421.362 73.3653 418.802 72.512C419.997 69.7813 420.594 67.3067 420.594 65.088C420.594 60.992 419.143 57.3227 416.242 54.08C412.829 50.6667 408.903 48.96 404.466 48.96C402.247 48.96 399.773 49.5573 397.042 50.752C396.189 48.192 394.909 46.0587 393.202 44.352C389.959 41.1093 386.034 39.5733 381.426 39.744C378.013 39.744 374.941 40.8533 372.21 43.072C369.479 45.12 367.602 47.7653 366.578 51.008C364.189 49.6427 361.714 48.96 359.154 48.96C354.887 48.96 351.133 50.5813 347.89 53.824C344.647 56.896 343.026 60.6507 343.026 65.088C343.026 67.3067 343.623 69.7813 344.818 72.512C341.575 73.536 338.93 75.4987 336.882 78.4C334.834 81.1307 333.81 84.288 333.81 87.872C333.81 92.3093 335.346 96.064 338.418 99.136C340.125 100.843 342.343 102.123 345.074 102.976C343.709 105.365 343.026 107.925 343.026 110.656C343.026 114.923 344.647 118.677 347.89 121.92C350.962 124.992 354.717 126.528 359.154 126.528C361.885 126.528 364.359 125.931 366.578 124.736C367.261 127.125 368.541 129.259 370.418 131.136C373.661 134.379 377.501 136 381.938 136C385.522 136 388.679 134.976 391.41 132.928C394.141 130.709 396.018 127.979 397.042 124.736C399.261 125.931 401.821 126.528 404.722 126.528C408.989 126.528 412.573 125.077 415.474 122.176C418.887 118.763 420.594 114.837 420.594 110.4C420.594 108.181 419.997 105.707 418.802 102.976C422.045 101.952 424.69 100.075 426.738 97.344C428.786 94.6133 429.895 91.5413 430.066 88.128Z" fill="#E35974"/>
<path d="M148.736 306.744C152.661 306.232 155.989 304.525 158.72 301.624C161.451 298.723 162.901 295.309 163.072 291.384C163.072 286.435 161.451 282.509 158.208 279.608C155.307 276.365 151.552 274.744 146.944 274.744H132.864C128.427 274.744 124.587 276.365 121.344 279.608C118.272 282.68 116.736 286.435 116.736 290.872V320.056H98.816V306.744V261.432H146.944C151.381 261.432 155.136 259.896 158.208 256.824C161.451 253.581 163.072 249.827 163.072 245.56C163.072 241.123 161.451 237.368 158.208 234.296C155.136 231.053 151.381 229.432 146.944 229.432H98.816V226.616C98.816 222.179 97.1947 218.424 93.952 215.352C90.88 212.28 87.1253 210.744 82.688 210.744C78.2507 210.744 74.496 212.28 71.424 215.352C68.352 218.424 66.816 222.179 66.816 226.616V252.216L48.64 234.04C45.568 230.968 41.8133 229.432 37.376 229.432C32.9387 229.432 29.184 230.968 26.112 234.04C22.8693 237.283 21.248 241.037 21.248 245.304C21.248 249.4 22.8693 253.24 26.112 256.824L44.032 274.744H18.688C14.2507 274.744 10.4107 276.365 7.168 279.608C4.096 282.68 2.56 286.605 2.56 291.384C2.73067 295.651 4.352 299.32 7.424 302.392C10.6667 305.293 14.5067 306.744 18.944 306.744H44.032L26.112 324.92C22.8693 328.163 21.248 331.917 21.248 336.184C21.248 340.451 22.8693 344.205 26.112 347.448C29.3547 350.691 33.1093 352.312 37.376 352.312C41.6427 352.312 45.3973 350.691 48.64 347.448L66.816 329.528V354.872C66.816 359.139 68.352 362.979 71.424 366.392C74.496 369.464 78.2507 371 82.688 371C87.1253 371 90.88 369.464 93.952 366.392C97.1947 363.149 98.816 359.309 98.816 354.872V352.312H146.944C151.381 352.312 155.136 350.776 158.208 347.704C161.451 344.461 163.072 340.621 163.072 336.184C163.072 332.088 161.707 328.589 158.976 325.688C156.245 322.616 152.832 320.824 148.736 320.312V306.744ZM328.822 291.384C328.822 286.435 327.201 282.509 323.958 279.608C321.057 276.365 317.302 274.744 312.694 274.744H309.878V226.616C309.878 222.179 308.342 218.424 305.27 215.352C302.198 212.28 298.443 210.744 294.006 210.744C289.569 210.744 285.729 212.28 282.486 215.352C279.414 218.424 277.878 222.179 277.878 226.616V274.744H219.254V226.616C219.254 222.179 217.718 218.424 214.646 215.352C211.233 212.28 207.393 210.744 203.126 210.744C198.859 210.744 195.105 212.28 191.862 215.352C188.79 218.424 187.254 222.179 187.254 226.616V274.744H184.438C179.83 274.744 176.075 276.365 173.174 279.608C169.931 282.509 168.31 286.435 168.31 291.384C168.481 295.651 170.102 299.32 173.174 302.392C176.417 305.464 180.257 307 184.694 307H209.782L191.862 324.92C188.79 327.992 187.254 331.747 187.254 336.184C187.254 340.621 188.79 344.376 191.862 347.448C194.934 350.691 198.689 352.312 203.126 352.312C207.563 352.312 211.403 350.691 214.646 347.448L232.566 329.528V354.872C232.566 359.139 234.102 362.979 237.174 366.392C240.587 369.464 244.427 371 248.694 371C253.131 371 256.886 369.464 259.958 366.392C263.03 363.149 264.566 359.309 264.566 354.872V329.528L282.486 347.448C285.729 350.691 289.569 352.312 294.006 352.312C298.443 352.312 302.198 350.691 305.27 347.448C308.513 344.376 310.134 340.621 310.134 336.184C310.134 331.747 308.513 327.992 305.27 324.92L287.35 307H312.438C316.875 307 320.63 305.464 323.702 302.392C326.945 299.32 328.651 295.651 328.822 291.384ZM430.316 261.432V274.744H443.628V261.432H430.316ZM489.708 343.608C492.951 346.68 494.572 350.435 494.572 354.872C494.572 359.309 492.951 363.149 489.708 366.392C486.636 369.464 482.881 371 478.444 371C474.177 371 470.337 369.464 466.924 366.392L430.316 329.528V354.872C430.316 359.309 428.695 363.149 425.452 366.392C422.38 369.464 418.625 371 414.188 371C409.751 371 405.996 369.464 402.924 366.392C399.852 362.979 398.316 359.139 398.316 354.872V329.528L380.14 347.448C376.897 350.691 373.143 352.312 368.876 352.312C364.609 352.312 360.855 350.691 357.612 347.448C354.369 344.205 352.748 340.451 352.748 336.184C352.748 331.917 354.369 328.163 357.612 324.92L375.532 306.744H350.444C346.007 306.744 342.167 305.293 338.924 302.392C335.852 299.32 334.231 295.651 334.06 291.384C334.06 286.605 335.596 282.68 338.668 279.608C341.911 276.365 345.751 274.744 350.188 274.744H375.532L357.612 256.824C354.369 253.24 352.748 249.4 352.748 245.304C352.748 241.037 354.369 237.283 357.612 234.04C360.684 230.968 364.439 229.432 368.876 229.432C373.313 229.432 377.068 230.968 380.14 234.04L398.316 252.216V226.616C398.316 222.179 399.852 218.424 402.924 215.352C405.996 212.28 409.751 210.744 414.188 210.744C418.625 210.744 422.38 212.28 425.452 215.352C428.695 218.424 430.316 222.179 430.316 226.616V229.432H459.5C463.937 229.432 467.692 231.053 470.764 234.296C474.007 237.368 475.628 241.123 475.628 245.56V274.744H478.444C483.052 274.744 486.807 276.365 489.708 279.608C493.121 282.68 494.657 286.605 494.316 291.384C494.145 295.651 492.524 299.32 489.452 302.392C486.38 305.293 482.625 306.744 478.188 306.744H452.844L489.708 343.608ZM660.066 336.184C660.066 331.747 658.445 327.992 655.202 324.92C652.13 321.677 648.375 320.056 643.938 320.056H596.066V306.744H643.682C648.119 306.744 651.874 305.293 654.946 302.392C658.189 299.32 659.895 295.651 660.066 291.384C660.237 289.165 659.895 287.032 659.042 284.984C658.189 282.936 656.994 281.144 655.458 279.608C652.215 276.365 648.461 274.744 644.194 274.744H618.594H596.066V261.432H643.938C648.375 261.432 652.13 259.896 655.202 256.824C658.445 253.752 660.066 249.997 660.066 245.56C660.066 241.123 658.445 237.368 655.202 234.296C652.13 231.053 648.375 229.432 643.938 229.432H596.066V226.616C596.066 222.179 594.445 218.424 591.202 215.352C588.13 212.28 584.375 210.744 579.938 210.744C575.501 210.744 571.746 212.28 568.674 215.352C565.431 218.253 563.81 222.008 563.81 226.616V252.216L545.89 234.04C542.818 230.968 539.063 229.432 534.626 229.432C530.359 229.432 526.519 230.968 523.106 234.04C520.034 237.112 518.498 240.867 518.498 245.304C518.498 249.571 520.034 253.411 523.106 256.824L541.282 274.744H515.682C511.074 274.744 507.319 276.365 504.418 279.608C501.005 282.68 499.469 286.605 499.81 291.384C499.981 295.651 501.602 299.32 504.674 302.392C507.746 305.293 511.501 306.744 515.938 306.744H541.282L523.106 324.92C520.034 327.992 518.498 331.747 518.498 336.184C518.498 340.621 520.034 344.376 523.106 347.448C526.69 350.691 530.53 352.312 534.626 352.312C538.893 352.312 542.647 350.691 545.89 347.448L563.81 329.528V354.872C563.81 359.309 565.431 363.149 568.674 366.392C571.746 369.464 575.501 371 579.938 371C584.375 371 588.13 369.464 591.202 366.392C594.445 363.149 596.066 359.309 596.066 354.872V352.312H643.938C648.375 352.312 652.13 350.776 655.202 347.704C658.445 344.461 660.066 340.621 660.066 336.184Z" fill="#7CC8BA"/>
</svg>
